<?xml version="1.0" standalone="no"?>
<!DOCTYPE svg PUBLIC "-//W3C//DTD SVG 1.1//EN" "http://www.w3.org/Graphics/SVG/1.1/DTD/svg11.dtd" >
<svg xmlns="http://www.w3.org/2000/svg">
<metadata>Generated by IcoMoon</metadata>
<defs>
<font id="icomoon" horiz-adv-x="1024">
<font-face units-per-em="1024" ascent="960" descent="-64" />
<missing-glyph horiz-adv-x="1024" />
<glyph unicode="&#x20;" horiz-adv-x="512" d="" />
<glyph unicode="&#xe900;" glyph-name="activity" d="M924.672 675.328h-148.48c14.336 17.408 19.456 36.864 19.456 57.344 0 62.464-70.656 113.664-156.672 113.664-54.272 0-99.328-19.456-128-48.128-28.672 28.672-73.728 48.128-128 48.128-84.992 0-156.672-51.2-156.672-113.664 0-19.456 8.192-39.936 19.456-57.344h-146.432c-54.272 0-99.328-45.056-99.328-99.328s0-43.008 0-99.328h57.344c0-14.336 0-19.456 0-57.344v-256c0-62.464 51.2-113.664 113.664-113.664h683.008c62.464 0 113.664 51.2 113.664 113.664v313.344h57.344c0 73.728 0 45.056 0 99.328s-46.080 99.328-100.352 99.328zM640 788.992c57.344 0 99.328-31.744 99.328-57.344s-43.008-57.344-99.328-57.344h-100.352c0 14.336 0 33.792 0 57.344 1.024 26.624 43.008 57.344 100.352 57.344zM284.672 732.672c0 25.6 43.008 57.344 99.328 57.344s99.328-31.744 99.328-57.344c0-28.672 0-57.344 0-57.344h-100.352c-56.32 0-98.304 31.744-98.304 57.344zM398.336 107.008h-227.328c-31.744 0-57.344 25.6-57.344 57.344v256c0 31.744 0 0 0 57.344h284.672v-370.688zM398.336 532.992h-340.992c0 43.008 0 19.456 0 43.008s19.456 43.008 43.008 43.008h299.008v-86.016zM569.344 107.008h-114.688v369.664h113.664v-369.664zM569.344 532.992h-114.688v84.992h114.688v-84.992zM910.336 163.328c0-31.744-25.6-57.344-57.344-57.344h-227.328v370.688h227.328c31.744 0 31.744 0 57.344 0v-313.344zM966.656 532.992c-113.664 0-51.2 0-113.664 0h-227.328v84.992h299.008c22.528 0 43.008-19.456 43.008-43.008s-1.024 1.024-1.024-41.984z" />
<glyph unicode="&#xe901;" glyph-name="circle" d="M512 960c-281.6 0-512-230.4-512-512s230.4-512 512-512 512 230.4 512 512-230.4 512-512 512zM512-0.512c-249.856 0-448.512 198.656-448.512 448.512s198.656 448.512 448.512 448.512 448.512-198.656 448.512-448.512-198.656-448.512-448.512-448.512zM512 704l-6.144-6.144c-64.512-102.4-147.456-186.368-249.856-249.856 102.4-63.488 185.344-147.456 249.856-249.856l6.144-6.144c63.488 102.4 153.6 192.512 249.856 262.144-96.256 57.344-186.368 147.456-249.856 249.856z" />
<glyph unicode="&#xe902;" glyph-name="arrow-left" d="M804.864 887.296l-72.704 72.704-512-512 512-512 72.704 72.704-440.32 439.296z" />
<glyph unicode="&#xe903;" glyph-name="arrow-l" d="M778.24 939.52l-20.48 20.48-512-512 512-512 20.48 20.48-491.52 491.52z" />
<glyph unicode="&#xe904;" glyph-name="arrow-r" d="M245.76 939.52l20.48 20.48 512-512-512-512-20.48 20.48 491.52 491.52z" />
<glyph unicode="&#xe905;" glyph-name="bank-card" d="M910.336 788.992h-796.672c-62.464 0-113.664-51.2-113.664-113.664v-456.704c0-62.464 51.2-113.664 113.664-113.664h796.672c62.464 0 113.664 51.2 113.664 113.664v458.752c0 60.416-51.2 111.616-113.664 111.616zM142.336 732.672h739.328c36.864 0 68.608-22.528 79.872-57.344h-899.072c11.264 34.816 43.008 57.344 79.872 57.344zM966.656 249.344c0-45.056-36.864-84.992-84.992-84.992h-739.328c-48.128 0-84.992 39.936-84.992 84.992v256h910.336v-256zM966.656 561.664h-909.312v57.344h910.336v-57.344zM625.664 276.992h227.328v-57.344h-227.328v57.344z" />
<glyph unicode="&#xe906;" glyph-name="notice" d="M439.296 856.576c-20.48 0-44.032-3.072-55.296-14.336l-177.152-186.368-32.768-17.408c-14.336 0-28.672 0-58.368 0-63.488 0-115.712-53.248-115.712-116.736v-174.080c0-64.512 52.224-116.736 116.736-116.736 28.672 0 44.032 0 58.368 0l31.744-17.408 177.152-159.744c11.264-9.216 34.816-14.336 55.296-14.336 63.488 0 113.664 49.152 116.736 113.664v0 583.68c0 67.584-53.248 119.808-116.736 119.808zM177.152 289.28c-40.96 0-26.624 0-58.368 0s-57.344 25.6-57.344 57.344v174.080c0 31.744 26.624 58.368 58.368 58.368s31.744 0 58.368 0v-289.792zM497.664 155.136v3.072c0-31.744-26.624-58.368-58.368-58.368-11.264 0-20.48 0-28.672 9.216l-178.176 156.672v337.92l177.152 186.368c9.216 9.216 17.408 9.216 28.672 9.216 31.744 0 58.368-26.624 58.368-58.368v-585.728zM709.632 681.472c-17.408 0-28.672-11.264-28.672-28.672 0-6.144 3.072-11.264 6.144-17.408 28.672-55.296 46.080-118.784 46.080-186.368s-17.408-131.072-47.104-186.368c-3.072-6.144-6.144-11.264-6.144-17.408 0-17.408 11.264-28.672 28.672-28.672 11.264 0 23.552 6.144 26.624 17.408 34.816 63.488 52.224 137.216 52.224 215.040s-20.48 151.552-52.224 215.040c-5.12 12.288-13.312 17.408-25.6 17.408zM899.072 839.168c-6.144 11.264-14.336 17.408-28.672 17.408-17.408 0-28.672-11.264-28.672-28.672 0-6.144 0-9.216 3.072-11.264 75.776-101.376 121.856-227.328 121.856-363.52s-46.080-262.144-121.856-363.52c-3.072-3.072-3.072-9.216-3.072-14.336 0-17.408 11.264-28.672 28.672-28.672 11.264 0 23.552 9.216 28.672 20.48 78.848 108.544 124.928 242.688 124.928 385.024s-49.152 276.48-124.928 387.072z" />
<glyph unicode="&#xe907;" glyph-name="set-up" d="M1003.52 499.2h-68.608c-6.144 36.864-14.336 76.8-28.672 110.592l59.392 33.792c11.264 6.144 14.336 19.456 8.192 28.672l-33.792 57.344c-6.144 11.264-19.456 14.336-28.672 8.192l-55.296-33.792c-11.264 14.336-25.6 28.672-36.864 45.056-14.336 14.336-28.672 25.6-45.056 36.864l33.792 59.392c6.144 11.264 3.072 22.528-8.192 28.672l-57.344 31.744c-11.264 6.144-22.528 3.072-28.672-8.192l-33.792-60.416c-36.864 14.336-73.728 25.6-110.592 28.672v70.656c0 11.264-8.192 22.528-22.528 22.528h-65.536c-11.264 0-22.528-8.192-22.528-22.528v-65.536c-36.864-6.144-76.8-14.336-110.592-28.672l-31.744 57.344c-6.144 11.264-20.48 14.336-29.696 9.216l-57.344-33.792c-11.264-6.144-14.336-19.456-8.192-28.672l34.816-60.416c-14.336-11.264-31.744-25.6-45.056-39.936s-26.624-27.648-37.888-41.984l-57.344 36.864c-11.264 6.144-22.528 3.072-28.672-8.192l-31.744-54.272c-6.144-11.264-3.072-22.528 8.192-28.672l57.344-33.792c-14.336-36.864-25.6-73.728-31.744-113.664h-66.56c-11.264 0-22.528-9.216-22.528-23.552v-65.536c0-11.264 8.192-22.528 22.528-22.528h65.536c6.144-39.936 14.336-76.8 28.672-113.664l-57.344-33.792c-11.264-6.144-14.336-20.48-8.192-28.672l31.744-54.272c6.144-11.264 19.456-14.336 28.672-8.192l57.344 33.792c11.264-14.336 25.6-28.672 36.864-45.056 14.336-14.336 28.672-25.6 45.056-36.864l-33.792-57.344c-6.144-11.264-3.072-22.528 8.192-28.672l54.272-31.744c11.264-6.144 22.528-3.072 28.672 8.192l33.792 57.344c36.864-14.336 73.728-25.6 113.664-28.672v-65.536c0-11.264 8.192-22.528 22.528-22.528h64.512c11.264 0 22.528 8.192 22.528 22.528v65.536c36.864 6.144 76.8 14.336 113.664 31.744l33.792-57.344c6.144-11.264 19.456-14.336 28.672-8.192l54.272 31.744c11.264 6.144 14.336 19.456 8.192 28.672l-33.792 59.392c14.336 11.264 28.672 22.528 43.008 36.864s25.6 28.672 39.936 45.056l59.392-33.792c11.264-6.144 22.528-3.072 28.672 8.192l31.744 54.272c6.144 11.264 3.072 22.528-8.192 28.672l-59.392 33.792c14.336 36.864 25.6 73.728 28.672 110.592h68.608c11.264 0 22.528 8.192 22.528 22.528v65.536c-1.024 11.264-7.168 18.432-21.504 18.432zM739.328 220.672c-124.928-125.952-326.656-125.952-452.608 0s-124.928 326.656 0 452.608 326.656 124.928 452.608 0 124.928-327.68 0-452.608zM512 627.2c-102.4 0-184.32-82.944-184.32-184.32s82.944-184.32 184.32-184.32 184.32 82.944 184.32 184.32-81.92 184.32-184.32 184.32zM512 320c-68.608 0-124.928 57.344-124.928 124.928s56.32 124.928 124.928 124.928 124.928-57.344 124.928-124.928c0-70.656-54.272-124.928-124.928-124.928z" />
<glyph unicode="&#xe908;" glyph-name="voucher" d="M1024 704v84.992h-1024v-84.992c31.744 0 57.344-25.6 57.344-57.344s-25.6-56.32-57.344-56.32v-84.992c31.744 0 57.344-25.6 57.344-57.344s-25.6-57.344-57.344-57.344v-84.992c31.744 0 57.344-25.6 57.344-57.344s-25.6-56.32-57.344-56.32v-84.992h1024v84.992c-31.744 0-57.344 25.6-57.344 57.344s25.6 57.344 57.344 57.344v84.992c-31.744 0-57.344 25.6-57.344 57.344s25.6 57.344 57.344 57.344v84.992c-31.744 0-57.344 25.6-57.344 57.344s25.6 55.296 57.344 55.296zM966.656 547.328c-33.792-19.456-57.344-57.344-57.344-99.328s22.528-79.872 57.344-99.328v-3.072c-33.792-19.456-57.344-57.344-57.344-99.328 0-33.792 14.336-65.536 39.936-84.992h-875.52c22.528 19.456 39.936 51.2 39.936 84.992 0 43.008-22.528 79.872-57.344 99.328v3.072c33.792 19.456 57.344 57.344 57.344 99.328s-22.528 79.872-57.344 99.328v3.072c33.792 19.456 57.344 57.344 57.344 99.328 0 33.792-14.336 65.536-39.936 84.992h873.472c-22.528-19.456-39.936-51.2-39.936-84.992 3.072-45.056 25.6-81.92 59.392-102.4v0zM611.328 660.992l-65.536-119.808c-17.408-31.744-28.672-54.272-31.744-65.536v0c-11.264 25.6-43.008 88.064-96.256 185.344h-62.464l113.664-196.608h-94.208v-43.008h110.592v-59.392h-109.568v-43.008h110.592v-88.064h54.272v88.064h105.472v43.008h-105.472v59.392h105.472v43.008h-91.136l116.736 196.608h-60.416z" />
<glyph unicode="&#xe909;" glyph-name="arrow-right" d="M220.16 887.296l72.704 72.704 512-512-512-512-72.704 72.704 439.296 439.296z" />
<glyph unicode="&#xe90a;" glyph-name="error" d="M512 960c-282.624 0-512-229.376-512-512s229.376-512 512-512 512 229.376 512 512c0 282.624-229.376 512-512 512zM794.624 223.744l-58.368-58.368-224.256 224.256-224.256-224.256-58.368 58.368 224.256 224.256-224.256 224.256 58.368 58.368 224.256-224.256 224.256 224.256 58.368-58.368-224.256-224.256 224.256-224.256z" />
<glyph unicode="&#xe90b;" glyph-name="errorBig" d="M512 960c-282.624 0-512-229.376-512-512s229.376-512 512-512 512 229.376 512 512-229.376 512-512 512zM512-43.52c-271.36 0-491.52 220.16-491.52 491.52s220.16 491.52 491.52 491.52 491.52-220.16 491.52-491.52-220.16-491.52-491.52-491.52zM768 704v0c-23.552 23.552-63.488 23.552-87.040 0l-168.96-168.96-169.984 168.96c-23.552 23.552-63.488 23.552-87.040 0v0c-23.552-23.552-23.552-63.488 0-87.040l169.984-168.96-168.96-169.984c-23.552-23.552-23.552-63.488 0-87.040v0c23.552-23.552 63.488-23.552 87.040 0l168.96 169.984 169.984-168.96c23.552-23.552 63.488-23.552 87.040 0v0c23.552 23.552 23.552 63.488 0 87.040l-169.984 168.96 168.96 169.984c24.576 23.552 24.576 62.464 0 86.016z" />
<glyph unicode="&#xe90c;" glyph-name="codePhone" d="M896 832h-768c-70.656 0-128-57.344-128-128v-512c0-70.656 57.344-128 128-128h768c70.656 0 128 57.344 128 128v512c0 70.656-57.344 128-128 128zM992.256 192c0-53.248-43.008-96.256-96.256-96.256h-768c-53.248 0-96.256 43.008-96.256 96.256v437.248l291.84-167.936-195.584-112.64 16.384-27.648 211.968 121.856 155.648-91.136 156.672 90.112 211.968-121.856 16.384 27.648-195.584 112.64 291.84 167.936v-436.224zM512 388.608l-480.256 277.504v37.888c0 53.248 43.008 96.256 96.256 96.256h768c53.248 0 96.256-43.008 96.256-96.256v-37.888l-480.256-277.504z" />
<glyph unicode="&#xe90d;" glyph-name="look" d="M1021.952 456.192c-99.328 175.104-288.768 264.192-509.952 264.192-218.112 0-407.552-89.088-509.952-261.12-1.024-2.048-2.048-5.12-2.048-10.24 0-3.072 0-5.12 2.048-8.192 100.352-176.128 288.768-265.216 507.904-265.216s407.552 89.088 509.952 261.12c2.048 2.048 5.12 7.168 5.12 10.24-1.024 5.12-1.024 6.144-3.072 9.216zM512 202.24c-204.8 0-382.976 80.896-482.304 245.76 99.328 164.864 277.504 245.76 482.304 245.76s386.048-80.896 485.376-245.76c-102.4-164.864-280.576-245.76-485.376-245.76zM512 636.416c-105.472 0-188.416-83.968-188.416-188.416s82.944-188.416 188.416-188.416 189.44 82.944 189.44 188.416-83.968 188.416-189.44 188.416zM431.104 474.624c-29.696 0-54.272 24.576-54.272 54.272s24.576 54.272 54.272 54.272 54.272-24.576 54.272-54.272-24.576-54.272-54.272-54.272z" />
<glyph unicode="&#xe90e;" glyph-name="password" d="M512 398.848c-40.96 0-72.704-31.744-72.704-72.704s31.744-72.704 72.704-72.704v-49.152h-49.152v-24.576h49.152v-49.152h24.576v126.976c29.696 10.24 49.152 36.864 49.152 68.608-1.024 40.96-32.768 72.704-73.728 72.704zM512 276.992c-26.624 0-49.152 21.504-49.152 49.152 0 26.624 21.504 49.152 49.152 49.152s49.152-21.504 49.152-49.152c0-26.624-22.528-49.152-49.152-49.152zM731.136 569.856h-438.272v146.432c0 121.856 97.28 219.136 219.136 219.136s219.136-97.28 219.136-219.136v-49.152h24.576v49.152c0 134.144-109.568 243.712-243.712 243.712s-243.712-109.568-243.712-243.712v-148.48c-40.96-10.24-72.704-49.152-72.704-95.232v-439.296c0-53.248 44.032-97.28 97.28-97.28h439.296c53.248 0 97.28 44.032 97.28 97.28v439.296c0 53.248-44.032 97.28-98.304 97.28zM804.864 33.28c0-40.96-31.744-72.704-72.704-72.704h-439.296c-40.96 0-72.704 31.744-72.704 72.704v439.296c0 40.96 31.744 72.704 72.704 72.704h439.296c40.96 0 72.704-31.744 72.704-72.704v-439.296z" />
<glyph unicode="&#xe90f;" glyph-name="phone" d="M514.048 8.704c40.96 0 72.704 31.744 72.704 72.704s-31.744 72.704-72.704 72.704-72.704-31.744-72.704-72.704c0-40.96 31.744-72.704 72.704-72.704zM514.048 130.56c26.624 0 49.152-21.504 49.152-49.152s-21.504-49.152-49.152-49.152-49.152 21.504-49.152 49.152 22.528 49.152 49.152 49.152zM731.136 960h-438.272c-54.272 0-98.304-44.032-98.304-97.28v-829.44c0-53.248 44.032-97.28 97.28-97.28h439.296c53.248 0 97.28 44.032 97.28 97.28v829.44c1.024 53.248-43.008 97.28-97.28 97.28zM804.864 33.28c0-40.96-31.744-72.704-72.704-72.704h-439.296c-40.96 0-72.704 31.744-72.704 72.704v171.008h584.704v-171.008zM804.864 228.864h-585.728v633.856c0 40.96 31.744 72.704 72.704 72.704h439.296c40.96 0 72.704-31.744 72.704-72.704v-633.856z" />
<glyph unicode="&#xe910;" glyph-name="unlook" d="M1020.928 636.416c2.048 3.072 3.072 5.12 3.072 8.192 0 5.12-5.12 13.312-13.312 13.312-5.12 0-8.192-3.072-11.264-8.192-100.352-169.984-280.576-277.504-488.448-277.504s-388.096 109.568-485.376 277.504c-3.072 5.12-8.192 8.192-11.264 8.192-8.192 0-13.312-5.12-13.312-13.312 0-3.072 0-4.096 3.072-8.192 43.008-75.776 102.4-137.216 173.056-189.44-24.576-48.128-80.896-70.656-132.096-51.2-8.192 3.072-13.312 0-16.384-8.192s0-13.312 8.192-16.384c62.464-21.504 132.096 5.12 164.864 62.464 46.080-29.696 97.28-51.2 151.552-67.584-5.12-56.32-51.2-100.352-107.52-100.352-8.192 0-13.312-5.12-13.312-13.312s5.12-13.312 13.312-13.312c70.656 0 126.976 51.2 132.096 121.856 43.008-11.264 86.016-16.384 135.168-16.384 46.080 0 92.16 5.12 135.168 16.384 8.192-67.584 62.464-121.856 132.096-121.856 8.192 0 13.312 5.12 13.312 13.312s-5.12 13.312-13.312 13.312c-56.32 0-102.4 43.008-107.52 100.352 54.272 16.384 105.472 37.888 151.552 67.584 32.768-56.32 100.352-83.968 164.864-62.464 8.192 3.072 11.264 8.192 8.192 16.384s-8.192 11.264-16.384 8.192c-48.128-16.384-105.472 5.12-132.096 51.2 67.584 49.152 126.976 113.664 172.032 189.44z" />
<glyph unicode="&#xe911;" glyph-name="error2" d="M512 960c-281.6 0-512-230.4-512-512s230.4-512 512-512 512 230.4 512 512-230.4 512-512 512zM512-20.992c-260.096 0-468.992 208.896-468.992 468.992s208.896 468.992 468.992 468.992 468.992-208.896 468.992-468.992-208.896-468.992-468.992-468.992zM720.896 691.712l-208.896-214.016-208.896 214.016-34.816-34.816 214.016-208.896-214.016-208.896 34.816-34.816 208.896 214.016 208.896-214.016 34.816 34.816-214.016 208.896 214.016 208.896z" />
<glyph unicode="&#xe912;" glyph-name="tips" d="M512 960c-282.624 0-512-229.376-512-512s229.376-512 512-512 512 229.376 512 512-229.376 512-512 512zM512-43.52c-271.36 0-491.52 220.16-491.52 491.52s220.16 491.52 491.52 491.52 491.52-220.16 491.52-491.52-220.16-491.52-491.52-491.52zM512 817.664c-40.96 0-74.752-34.816-74.752-74.752l15.36-398.336c0-32.768 28.672-61.44 61.44-61.44s61.44 27.648 61.44 61.44l11.264 398.336c0 40.96-33.792 74.752-74.752 74.752zM577.536 141.824c0-35.063-28.425-63.488-63.488-63.488s-63.488 28.425-63.488 63.488c0 35.063 28.425 63.488 63.488 63.488s63.488-28.425 63.488-63.488z" />
<glyph unicode="&#xe913;" glyph-name="checked" d="M451.584 327.168l-241.664 241.664-60.416-60.416 302.080-302.080 422.912 422.912-60.416 60.416zM852.992 960h-681.984c-94.208 0-171.008-76.8-171.008-171.008v-683.008c0-93.184 76.8-169.984 171.008-169.984h683.008c94.208 0 171.008 76.8 171.008 171.008v681.984c-1.024 94.208-77.824 171.008-172.032 171.008zM980.992 107.008c0-70.656-57.344-128-128-128h-681.984c-70.656 0-128 57.344-128 128v681.984c0 70.656 57.344 128 128 128h683.008c70.656 0 128-57.344 128-128v-681.984z" />
<glyph unicode="&#xe914;" glyph-name="tip" d="M512 960c-282.624 0-512-229.376-512-512s229.376-512 512-512c282.624 0 512 229.376 512 512s-229.376 512-512 512zM512-20.992c-259.072 0-468.992 209.92-468.992 468.992s209.92 468.992 468.992 468.992 468.992-209.92 468.992-468.992-209.92-468.992-468.992-468.992zM468.992 788.992h84.992v-512h-84.992v512zM468.992 192h84.992v-84.992h-84.992v84.992z" />
<glyph unicode="&#xe915;" glyph-name="bankcard" d="M896 832h-768c-70.656 0-128-57.344-128-128v-512c0-70.656 57.344-128 128-128h768c70.656 0 128 57.344 128 128v512c0 70.656-57.344 128-128 128zM128 800.256h768c53.248 0 96.256-43.008 96.256-96.256h-960.512c0 53.248 43.008 96.256 96.256 96.256zM992.256 192c0-53.248-43.008-96.256-96.256-96.256h-768c-53.248 0-96.256 43.008-96.256 96.256v352.256h960.512v-352.256zM992.256 576h-960.512v96.256h960.512v-96.256zM640 223.744h256v-31.744h-256v31.744z" />
<glyph unicode="&#xe916;" glyph-name="id" d="M896 832h-768c-70.656 0-128-57.344-128-128v-512c0-70.656 57.344-128 128-128h768c70.656 0 128 57.344 128 128v512c0 70.656-57.344 128-128 128zM992.256 192c0-53.248-43.008-96.256-96.256-96.256h-768c-53.248 0-96.256 43.008-96.256 96.256v512c0 53.248 43.008 96.256 96.256 96.256h768c53.248 0 96.256-43.008 96.256-96.256v-512zM319.488 416.256c70.656 0 128 57.344 128 128s-57.344 128-128 128-128-57.344-128-128c1.024-70.656 57.344-128 128-128zM319.488 640.512c53.248 0 96.256-43.008 96.256-96.256s-43.008-96.256-96.256-96.256-96.256 43.008-96.256 96.256 44.032 96.256 96.256 96.256zM419.84 419.328c-9.216-8.192-19.456-14.336-30.72-19.456 54.272-25.6 91.136-79.872 91.136-144.384h-320.512c0 63.488 37.888 117.76 91.136 144.384-11.264 5.12-21.504 12.288-30.72 19.456-55.296-33.792-92.16-94.208-92.16-163.84v-31.744h384v31.744c0 69.632-36.864 131.072-92.16 163.84zM575.488 607.744h319.488v-31.744h-319.488v31.744zM575.488 511.488h319.488v-31.744h-319.488v31.744zM575.488 416.256h319.488v-31.744h-319.488v31.744zM575.488 320h319.488v-31.744h-319.488v31.744z" />
<glyph unicode="&#xe917;" glyph-name="name" d="M512 320c177.152 0 319.488 143.36 319.488 319.488s-142.336 320.512-319.488 320.512c-177.152 0-320.512-143.36-320.512-319.488s143.36-320.512 320.512-320.512zM512 928.256c158.72 0 287.744-129.024 287.744-287.744s-129.024-288.768-287.744-288.768c-158.72 0-287.744 129.024-287.744 287.744s129.024 288.768 287.744 288.768zM696.32 340.48c-11.264-7.168-22.528-13.312-34.816-18.432 138.24-58.368 234.496-194.56 234.496-353.28h-768c0 158.72 96.256 294.912 234.496 353.28-12.288 5.12-23.552 12.288-34.816 18.432-137.216-67.584-231.424-208.896-231.424-372.736v-31.744h831.488v31.744c0 163.84-94.208 305.152-231.424 372.736z" />
<glyph unicode="&#xe918;" glyph-name="unchecked" d="M852.992 960h-681.984c-94.208 0-171.008-76.8-171.008-171.008v-683.008c0-93.184 76.8-169.984 171.008-169.984h683.008c94.208 0 171.008 76.8 171.008 171.008v681.984c-1.024 94.208-77.824 171.008-172.032 171.008zM980.992 107.008c0-70.656-57.344-128-128-128h-681.984c-70.656 0-128 57.344-128 128v681.984c0 70.656 57.344 128 128 128h683.008c70.656 0 128-57.344 128-128v-681.984z" />
<glyph unicode="&#xe919;" glyph-name="buy" d="M96.256 797.184v101.376h-96.256v-31.744h64.512v-101.376l155.648-580.608c-38.912-12.288-67.584-48.128-67.584-91.136 0-53.248 43.008-96.256 96.256-96.256 47.104 0 87.040 34.816 94.208 79.872h403.456c7.168-45.056 47.104-79.872 94.208-79.872 53.248 0 96.256 43.008 96.256 96.256s-43.008 96.256-96.256 96.256c-47.104 0-87.040-34.816-94.208-79.872h-404.48c-7.168 44.032-45.056 77.824-91.136 79.872l-34.816 128h687.104l120.832 447.488v31.744h-927.744zM839.68 157.184c34.816 0 64.512-28.672 64.512-64.512 0-34.816-28.672-64.512-64.512-64.512-34.816 0-64.512 28.672-64.512 64.512 1.024 35.84 29.696 64.512 64.512 64.512zM312.32 93.696c0-34.816-28.672-64.512-64.512-64.512s-63.488 28.672-63.488 64.512c0 34.816 28.672 64.512 64.512 64.512s63.488-29.696 63.488-64.512zM879.616 349.696h-670.72l-76.8 286.72h824.32l-76.8-286.72zM965.632 670.208h-842.752l-25.6 95.232h893.952l-25.6-95.232z" />
<glyph unicode="&#xe91a;" glyph-name="vip" d="M903.168 568.832c0 216.064-175.104 391.168-391.168 391.168s-391.168-175.104-391.168-391.168c0-124.928 59.392-236.544 150.528-308.224v-324.608l240.64 120.832 240.64-120.832v324.608c92.16 71.68 150.528 182.272 150.528 308.224zM722.944 237.056v-240.64l-210.944 90.112-210.944-90.112v240.64h3.072c60.416-37.888 131.072-60.416 207.872-60.416s147.456 22.528 207.872 60.416h3.072zM512 207.36c-199.68 0-361.472 161.792-361.472 361.472s161.792 361.472 361.472 361.472 361.472-161.792 361.472-361.472-161.792-361.472-361.472-361.472zM362.496 463.36h-1.024l-86.016 234.496h-24.576l97.28-258.048h27.648l97.28 258.048h-24.576zM504.832 697.856h22.528v-258.048h-22.528v258.048zM688.128 697.856h-105.472v-258.048h22.528v109.568h81.92c57.344 0 86.016 24.576 86.016 74.752 0 49.152-28.672 73.728-84.992 73.728zM735.232 582.144c-11.264-9.216-26.624-13.312-49.152-13.312h-80.896v109.568h80.896c22.528 0 38.912-5.12 49.152-14.336 10.24-8.192 15.36-22.528 15.36-40.96 1.024-18.432-5.12-31.744-15.36-40.96z" />
<glyph unicode="&#xe91b;" glyph-name="plus" d="M1024 473.6h-486.4v486.4h-51.2v-486.4h-486.4v-51.2h486.4v-486.4h51.2v486.4h486.4z" />
<glyph unicode="&#xe91c;" glyph-name="cat" d="M455.178 447.089c0 0-3.584-73.892-11.581-95.539-7.987-21.596-44.339-85.606-44.339-85.606s63.57-2.335 94.157-12.257c30.607-9.882 87.030-43.643 87.030-43.643s3.379 63.724 11.796 92.723c8.479 29.174 44.124 88.484 44.124 88.484s-72.94 1.096-99.123 11.049c-26.245 9.943-82.063 44.79-82.063 44.79zM1016.33 577.004c-51.651 5.97-101.356-2.304-148.5-19.282-3.83 5.243-7.844 10.23-11.991 14.828-6.902 7.66-14.346 14.797-22.159 21.494-0.236 0.471-0.492 0.942-0.727 1.393-0.195 0.369-0.461 0.84-0.655 1.229 45.302 24.515 94.566 40.151 148.019 39.199 8.458-0.154 23.081 12.534 8.346 12.8-58.481 1.024-112.599-15.196-162.499-41.277-4.772 8.038-10.793 17.592-17.684 28.099 42.158 36.045 90.532 63.672 146.883 73.083 10.875 1.823 17.521 15.923 2.601 13.435-60.058-10.035-112.087-37.335-157.645-74.189-24.197 36.086-55.419 79.176-78.551 107.151-58.255 70.482-150.18 163.738-193.772 166.707 0 0-16.548 0.84-76.851-130.284-18.647-4.055-41.277-9.411-68.608-16.323-83.2-21.053-152.607-69.376-201.595-133.386-51.999 5.13-129.188 6.103-180.234-23.378 0 0-8.796-104.090 151.398-377.324-58.593-23.306-111.749-57.743-150.671-109.804-6.226-8.325 15.862-7.045 20.408-0.973 35.451 47.421 83.64 78.592 136.765 99.871 5.335-8.98 10.824-18.135 16.517-27.474-50.565-32.573-94.177-74.394-121.518-129.935-4.618-9.359 17.142-6.717 20.255-0.41 24.842 50.463 63.13 89.006 107.981 119.368 8.11-13.169 16.476-26.593 25.324-40.468-44.933-36.762-82.104-81.684-103.168-137.841-2.652-7.096 19.077-4.362 21.75 2.785 18.657 49.746 50.586 90.040 89.344 123.535 5.939-7.885 11.95-14.111 17.92-18.975 63.57-88.033 173.937-146.34 299.571-146.34 142.715 0 265.8 75.223 322.867 183.849 11.366 18.504 21.238 37.888 29.594 57.969 19.845 47.964 31.089 101.478 32.348 153.262 1.106 45.629-1.925 93.88-20.183 136.253-5.878 13.64-13.373 27.935-21.975 41.216 42.076 14.92 86.405 22.098 132.905 16.732 9.083-1.044 22.876 11.715 8.192 13.404zM814.51 144.855c-65.546-91.167-170.67-150.313-289.249-150.313-198.748 0-359.864 165.949-359.864 370.678 0 204.698 161.106 370.668 359.864 370.668 97.065 0 185.139-39.619 249.846-103.997-33.331 15.452-72.243 23.245-108.319 16.548-3.103-0.584-6.246-1.229-9.4-1.987-8.223-1.987-16.466-4.557-24.054-7.823-24.781-10.742-48.118-25.508-62.065-49.357-7.772-13.332-12.81-27.29-14.172-42.711-0.236-2.796-0.246-5.663-0.266-8.489l24.535 11.459 5.192-11.11-29.143-13.609c0.041-0.287 0.031-0.594 0.072-0.881 1.126-10.383 3.092-21.463 6.431-31.355 1.638-4.864 3.768-9.605 6.216-14.203l31.212 18.77 6.328-10.496-31.171-18.77c7.014-10.117 15.862-18.995 25.836-25.795l29.348 23.931 7.752-9.503-25.815-21.053c18.985-9.482 40.264-13.087 61.379-9.216 19.292 3.523 36.403 11.295 54.303 18.964 12.882 5.468 26.757 7.741 40.714 7.086 18.196-0.881 38.994-5.939 53.166-17.859 14.418-12.093 41.554-12.913 41.626-137.206 0.041-50.473-21.094-105.093-50.299-152.371z" />
<glyph unicode="&#xe91d;" glyph-name="focus" d="M659.917 482.13h-113.797v113.777c0 12.575-10.179 22.753-22.753 22.753s-22.753-10.179-22.753-22.753v-113.777h-113.777c-12.585 0-22.764-10.168-22.764-22.753 0-12.564 10.168-22.753 22.764-22.753h113.777v-113.787c0-12.554 10.179-22.753 22.753-22.753s22.753 10.199 22.753 22.753v113.797h113.797c12.575 0 22.753 10.189 22.753 22.753 0 12.575-10.179 22.743-22.753 22.743zM1001.247 482.13h-57.559c-11.53 213.729-183.316 384.338-397.568 393.984v61.133c0 12.575-10.179 22.753-22.753 22.753s-22.753-10.179-22.753-22.753v-61.522c-210.688-13.281-378.583-182.395-389.99-393.595h-87.869c-12.585 0-22.753-10.168-22.753-22.753 0-12.564 10.168-22.753 22.753-22.753h87.869c11.407-211.21 179.302-380.324 390.001-393.605v-84.275c0-12.554 10.179-22.753 22.753-22.753s22.753 10.199 22.753 22.753v83.896c214.252 9.636 386.038 180.265 397.568 393.984h57.559c12.575 0 22.753 10.189 22.753 22.753-0.010 12.585-10.189 22.753-22.764 22.753zM546.12 84.541v101.765c0 12.585-10.179 22.774-22.753 22.774s-22.753-10.179-22.753-22.774v-101.356c-187.566 13.117-336.814 163.604-348.109 351.683h97.812c12.575 0 22.753 10.189 22.753 22.753 0 12.585-10.179 22.753-22.753 22.753h-97.812c11.295 188.068 160.543 338.555 348.119 351.693v-124.15c0-12.554 10.179-22.753 22.753-22.753s22.753 10.199 22.753 22.753v124.539c191.109-9.564 344.238-161.485 355.666-352.092h-128.092c-12.585 0-22.774-10.168-22.774-22.753 0-12.564 10.189-22.753 22.774-22.753h128.092c-11.438-190.577-164.598-342.528-355.676-352.082z" />
<glyph unicode="&#xe91e;" glyph-name="item" d="M267.745 879.657c1.167 24.33-12.636 78.172-12.636 78.172h-17.080c5.376-11.233 11.704-61.788 11.704-61.788l-20.152-0.41c-0.215 0.686-8.038 25.334-14.961 33.649v-48.445l0.236 0.225v-2.806l52.89 1.403zM282.030 880.364l36.741 0.236c5.847 32.061 4.915 77.466 4.915 77.466h-17.091c1.874-22.467-2.806-61.082-2.806-61.082h-5.622c0.461 17.316-8.428 61.082-8.428 61.082h-17.316c10.066-40.96 9.605-77.701 9.605-77.701zM755.722 478.515c-5.612 98.294-29.491 143.933-29.491 143.933s86.364 113.736 77.23 200.11c0 0-63.887 51.251-284.365 68.106 0 0-120.76 8.428-167.096 6.318 0 0 5.612 44.933 2.796 61.082l-16.148 0.236c0 0 0.707-47.749-5.847-77.701 0 0 295.127 8.663 455.209-66.458 0 0 7.721-63.898-80.036-189.573 0 0 37.212-96.195 31.59-166.4-5.622-70.216-13.343-97.597-40.028-181.146 0 0 82.852-113.050 84.961-149.555 0 0-23.173-44.227-230.994-86.364 0 0-115.159-21.77-192.389-23.173 0 0 7.721-72.325 4.915-80.026h16.148c0 0 2.109 51.241-2.806 64.594 0 0 141.128 7.025 245.74 36.495 104.622 29.501 165.007 55.47 175.534 85.658 0 0 14.049 17.562-82.145 153.068 0.010-0.010 42.844 102.513 37.222 200.796zM307.067 15.114c0 0-4.444-62.956-10.537-77.466h17.316c0 0 8.428 38.154 9.134 60.16l7.25 0.686c0 0 5.376-33.925 4.454-61.307l16.609-0.481c0 0 0.942 39.322-6.554 79.35l-37.673-0.942zM235.213 2.478c-1.638-11.704-16.855-64.84-16.855-64.84h16.855c5.151 12.411 13.804 49.848 13.804 49.848l25.743 5.386c-1.167-27.392-8.653-54.989-8.653-54.989l17.316-0.246c8.653 30.198 9.124 77.23 9.124 77.23l-3.041 0.481c-25.733-10.301-54.292-12.872-54.292-12.872z" />
<glyph unicode="&#xe91f;" glyph-name="purse" d="M673.987 649.943l153.498 138.158v20.838l-62.536 41.697h-166.758c-35.174 53.422-145.92 62.536-145.92 62.536-183.050 0-229.304-104.243-229.304-104.243 0-50.371 66.294-114.412 120.084-158.167-198.799-69.396-341.34-250.911-341.34-414.566 0-207.462 218.44-239.032 500.756-239.032s521.605 31.57 521.605 239.032c-0.010 166.492-146.053 347.566-350.085 413.747zM264.643 788.101v20.838c0 0 48.21 62.546 166.769 62.546 0 0 114.647 2.611 166.779-62.546h187.607v-20.838l-166.769-145.92h-208.466l-145.92 145.92zM502.456 38.697c-244.685 0-459.028 27.75-459.028 207.544 0 148.357 153.139 316.17 344.146 370.319 13.844-9.994 22.989-16.077 22.989-16.077h208.456l18.842 16.957-0.020-0.768c191.252-54.077 344.648-222.065 344.494-370.422-0.164-179.804-235.192-207.555-479.877-207.555zM887.941 330.117c5.284-17.459 8.223-34.908 8.202-52.029-0.082-81.029-42.045-119.777-132.239-137.533 1.219-9.626 3.942-18.135 8.325-25.129 92.969 21.545 154.573 65.976 154.573 155.341 0 20.265-3.226 40.878-8.95 61.44-10.24 0.911-20.244 0.215-29.911-2.089zM585.226 519.7l-46.828-86.282c-12.493-23.357-20.122-38.922-22.917-46.623h-0.799c-8.223 18.739-31.488 63.037-69.734 132.905h-44.052l81.9-140.667h-67.154v-31.068h78.715v-42.844h-78.715v-31.488h78.715v-62.362h39.055v62.362h75.93v31.488h-75.93v42.834h75.93v31.068h-65.157l82.688 140.667h-41.646z" />
<glyph unicode="&#xe920;" glyph-name="codeWeb" d="M113.664 64v768c0 53.248 43.008 96.256 96.256 96.256h512c53.248 0 96.256-43.008 96.256-96.256v-319.488h31.744v319.488c0 70.656-57.344 128-128 128h-512c-70.656 0-128-57.344-128-128v-768c0-70.656 57.344-128 128-128h192.512v31.744h-192.512c-53.248 0-96.256 43.008-96.256 96.256zM849.92 456.192l-384-384v-136.192h136.192l384 384-136.192 136.192zM497.664-32.256v71.68l71.68-71.68h-71.68zM601.088-18.944l-90.112 90.112 271.36 271.36 90.112-90.112-271.36-271.36zM896 274.944l-91.136 91.136 45.056 45.056 90.112-90.112-44.032-46.080zM241.664 800.256h448.512v-31.744h-448.512v31.744zM241.664 640.512h448.512v-31.744h-448.512v31.744zM241.664 479.744h448.512v-31.744h-448.512v31.744zM241.664 320h256v-31.744h-256v31.744z" />
<glyph unicode="&#xe921;" glyph-name="questionmarked" d="M512 960c-282.624 0-512-229.376-512-512s229.376-512 512-512 512 229.376 512 512-229.376 512-512 512zM543.744 146.944c-10.24-9.216-22.528-14.336-36.864-14.336s-26.624 5.12-36.864 14.336c-10.24 10.24-14.336 22.528-14.336 36.864s4.096 26.624 14.336 36.864 22.528 14.336 36.864 14.336c14.336 0 27.648-4.096 37.888-14.336 9.216-9.216 14.336-21.504 14.336-36.864s-5.12-26.624-15.36-36.864zM668.672 494.080c-8.192-10.24-31.744-32.768-70.656-66.56-19.456-16.384-31.744-31.744-40.96-48.128-11.264-19.456-16.384-39.936-16.384-63.488v-19.456h-69.632v19.456c0 28.672 5.12 54.272 15.36 75.776 12.288 25.6 40.96 59.392 87.040 100.352 14.336 14.336 24.576 24.576 29.696 30.72 17.408 21.504 25.6 44.032 25.6 68.608 0 34.816-10.24 61.44-29.696 80.896-19.456 20.48-48.128 30.72-84.992 30.72-43.008 0-75.776-14.336-96.256-41.984-19.456-24.576-28.672-57.344-28.672-99.328h-68.608c0 60.416 16.384 109.568 51.2 145.408 34.816 37.888 82.944 57.344 145.408 57.344 55.296 0 99.328-14.336 133.12-46.080 31.744-29.696 48.128-70.656 48.128-121.856 3.072-39.936-8.192-73.728-29.696-102.4z" />
<glyph unicode="&#xe922;" glyph-name="questionmark" d="M512 960c-282.624 0-512-229.376-512-512s229.376-512 512-512 512 229.376 512 512c0 282.624-229.376 512-512 512zM512-25.088c-260.096 0-473.088 212.992-473.088 473.088s212.992 473.088 473.088 473.088 473.088-212.992 473.088-473.088-212.992-473.088-473.088-473.088zM506.88 236.032c-15.36 0-27.648-4.096-36.864-14.336-10.24-9.216-15.36-21.504-15.36-36.864 0-14.336 5.12-26.624 15.36-36.864 9.216-9.216 21.504-14.336 36.864-14.336 14.336 0 26.624 5.12 36.864 14.336 9.216 9.216 14.336 21.504 14.336 36.864 0 14.336-5.12 26.624-14.336 36.864-9.216 9.216-21.504 14.336-36.864 14.336zM519.168 763.392c-61.44 0-109.568-19.456-145.408-57.344-33.792-36.864-51.2-84.992-51.2-145.408h69.632c0 41.984 9.216 75.776 27.648 99.328 21.504 28.672 53.248 41.984 96.256 41.984 36.864 0 64.512-9.216 86.016-30.72 19.456-19.456 28.672-46.080 28.672-80.896 0-24.576-8.192-47.104-25.6-68.608-6.144-7.168-15.36-17.408-29.696-30.72-47.104-41.984-75.776-74.752-87.040-100.352-11.264-21.504-16.384-47.104-16.384-75.776v-19.456h70.656v19.456c0 23.552 5.12 45.056 16.384 64.512 8.192 15.36 21.504 30.72 39.936 47.104 37.888 33.792 62.464 56.32 70.656 66.56 20.48 28.672 31.744 62.464 31.744 101.376 0 52.224-16.384 93.184-48.128 121.856-33.792 32.768-78.848 47.104-134.144 47.104z" />
<glyph unicode="&#xe923;" glyph-name="date" d="M843.776 839.168h-90.112v60.416c0 32.768-26.624 60.416-60.416 60.416s-60.416-26.624-60.416-60.416v-60.416h-241.664v60.416c0 32.768-26.624 60.416-60.416 60.416-32.768 0-60.416-26.624-60.416-60.416v-60.416h-90.112c-66.56 0-120.832-54.272-120.832-120.832v-662.528c0-66.56 54.272-120.832 120.832-120.832h662.528c66.56 0 120.832 54.272 120.832 120.832v663.552c0 65.536-54.272 119.808-119.808 119.808zM662.528 899.584c0 16.384 13.312 29.696 29.696 29.696s29.696-13.312 29.696-29.696v-150.528c0-16.384-13.312-29.696-29.696-29.696s-29.696 13.312-29.696 29.696v150.528zM301.056 899.584c0 16.384 13.312 29.696 29.696 29.696s29.696-13.312 29.696-29.696v-150.528c0-16.384-13.312-29.696-29.696-29.696s-29.696 13.312-29.696 29.696v150.528zM933.888 56.832c0-50.176-40.96-90.112-90.112-90.112h-663.552c-50.176 0-90.112 40.96-90.112 90.112v541.696h843.776v-541.696zM933.888 628.224h-843.776v90.112c0 50.176 40.96 90.112 90.112 90.112h90.112v-60.416c0-32.768 26.624-60.416 60.416-60.416 32.768 0 60.416 26.624 60.416 60.416v60.416h240.64v-60.416c0-32.768 26.624-60.416 60.416-60.416s60.416 26.624 60.416 60.416v60.416h90.112c50.176 0 90.112-40.96 90.112-90.112v-90.112zM391.168 477.696h240.64v-29.696h-240.64v29.696zM210.944 477.696h120.832v-29.696h-120.832v29.696zM692.224 477.696h120.832v-29.696h-120.832v29.696zM391.168 327.168h240.64v-29.696h-240.64v29.696zM210.944 327.168h120.832v-29.696h-120.832v29.696zM692.224 327.168h120.832v-29.696h-120.832v29.696zM391.168 176.64h240.64v-29.696h-240.64v29.696zM210.944 176.64h120.832v-29.696h-120.832v29.696zM692.224 176.64h120.832v-29.696h-120.832v29.696z" />
<glyph unicode="&#xe924;" glyph-name="vouchers2" d="M113.664 245.248l57.344-57.344 56.32 57.344 57.344-57.344 56.32 57.344 57.344-57.344 56.32 57.344 57.344-57.344 57.344 57.344 56.32-57.344 57.344 57.344 56.32-57.344 57.344 57.344 56.32-57.344 57.344 57.344 56.32-57.344 57.344 57.344v462.848h-1024v-462.848l57.344-57.344z" />
<glyph unicode="&#xe925;" glyph-name="vouchers1" d="M1024 262.656v25.6c-10.24 0-19.456 8.192-19.456 19.456s8.192 19.456 19.456 19.456v25.6c-10.24 0-19.456 8.192-19.456 19.456s8.192 19.456 19.456 19.456v25.6c-17.408 0-31.744 14.336-31.744 31.744s14.336 31.744 31.744 31.744v25.6c-10.24 0-19.456 8.192-19.456 19.456s8.192 19.456 19.456 19.456v25.6c-10.24 0-19.456 8.192-19.456 19.456s8.192 19.456 19.456 19.456v25.6c-10.24 0-19.456 8.192-19.456 19.456h-985.088c0-10.24-8.192-19.456-19.456-19.456v-25.6c10.24 0 19.456-8.192 19.456-19.456s-9.216-20.48-19.456-20.48v-25.6c10.24 0 19.456-8.192 19.456-19.456s-9.216-19.456-19.456-19.456v-25.6c17.408 0 31.744-14.336 31.744-31.744s-14.336-31.744-31.744-31.744v-25.6c10.24 0 19.456-8.192 19.456-19.456s-9.216-19.456-19.456-19.456v-25.6c10.24 0 19.456-8.192 19.456-19.456s-9.216-18.432-19.456-18.432v-25.6c10.24 0 19.456-8.192 19.456-19.456h985.088c0 10.24 9.216 19.456 19.456 19.456z" />
<glyph unicode="&#xe926;" glyph-name="add" d="M512 960c-282.624 0-512-229.376-512-512s229.376-512 512-512 512 229.376 512 512-229.376 512-512 512zM512-25.088c-260.096 0-473.088 212.992-473.088 473.088s212.992 473.088 473.088 473.088 473.088-212.992 473.088-473.088-212.992-473.088-473.088-473.088zM550.912 763.392h-77.824v-276.48h-276.48v-77.824h276.48v-276.48h77.824v276.48h276.48v77.824h-276.48z" />
<glyph unicode="&#xe927;" glyph-name="question" d="M512 960c-282.624 0-512-229.376-512-512s229.376-512 512-512 512 229.376 512 512c0 282.624-229.376 512-512 512zM512-23.040c-260.096 0-471.040 210.944-471.040 471.040s210.944 471.040 471.040 471.040 471.040-210.944 471.040-471.040-210.944-471.040-471.040-471.040zM672.768 766.464c-39.936 35.84-92.16 53.248-154.624 53.248-29.696 0-58.368-5.12-87.040-14.336-27.648-9.216-53.248-24.576-75.776-45.056s-38.912-43.008-48.128-66.56c-9.216-24.576-15.36-58.368-16.384-101.376h69.632c8.192 112.64 59.392 168.96 154.624 168.96 44.032 0 78.848-12.288 104.448-35.84 25.6-24.576 38.912-56.32 38.912-96.256 0-26.624-5.12-48.128-15.36-65.536s-35.84-47.104-76.8-89.088c-40.96-41.984-67.584-76.8-78.848-105.472-12.288-28.672-18.432-64.512-20.48-105.472h73.728c0 46.080 5.12 78.848 15.36 99.328 10.24 19.456 36.864 51.2 80.896 92.16 40.96 37.888 66.56 67.584 78.848 89.088s18.432 48.128 18.432 78.848c-1.024 59.392-20.48 107.52-61.44 143.36zM465.92 162.304h81.92v-87.040h-81.92v87.040z" />
<glyph unicode="&#xe928;" glyph-name="give" d="M561.152 252.416h194.56v-57.344h-194.56v57.344zM561.152 349.696h194.56v-58.368h-194.56v58.368zM529.408 477.696h105.472v159.744h-105.472v-159.744zM582.656 606.72c10.24-27.648 20.48-59.392 28.672-95.232l-30.72-8.192c-8.192 32.768-17.408 63.488-29.696 93.184l31.744 10.24zM512 960c-282.624 0-512-229.376-512-512s229.376-512 512-512 512 229.376 512 512-229.376 512-512 512zM225.28 738.816h223.232v-434.176h-45.056v389.12h-133.12v-392.192h-45.056v437.248zM222.208 120.32l-26.624 40.96c45.056 24.576 76.8 56.32 95.232 97.28 16.384 41.984 25.6 96.256 26.624 162.816v230.4h40.96v-229.376c-1.024-81.92-12.288-146.432-33.792-195.584-20.48-46.080-54.272-80.896-102.4-106.496zM438.272 134.656c-21.504 33.792-51.2 69.632-88.064 107.52l30.72 29.696c35.84-33.792 66.56-67.584 92.16-102.4l-34.816-34.816zM802.816 122.368h-47.104v30.72h-194.56v-30.72h-47.104v270.336h289.792v-270.336zM827.392 434.688h-342.016v245.76h82.944c-10.24 30.72-21.504 58.368-33.792 83.968l51.2 8.192c10.24-26.624 20.48-58.368 29.696-92.16h80.896c12.288 30.72 21.504 62.464 26.624 95.232l49.152-7.168c-6.144-31.744-15.36-61.44-27.648-88.064h82.944v-245.76zM676.864 477.696h107.52v159.744h-107.52v-159.744zM729.088 609.792l33.792-8.192c-8.192-37.888-19.456-70.656-32.768-100.352l-32.768 12.288c12.288 24.576 22.528 57.344 31.744 96.256z" />
<glyph unicode="&#xe929;" glyph-name="vouchers3" d="M1024 324.096v17.408c-7.168 0-12.288 6.144-12.288 12.288 0 7.168 6.144 12.288 12.288 12.288v17.408c-7.168 0-12.288 6.144-12.288 12.288s6.144 12.288 12.288 12.288v17.408c-12.288 0-21.504 9.216-21.504 21.504s9.216 21.504 21.504 21.504v17.408c-7.168 0-12.288 6.144-12.288 12.288s6.144 12.288 12.288 12.288v17.408c-7.168 0-12.288 6.144-12.288 12.288 0 7.168 6.144 12.288 12.288 12.288v17.408c-7.168 0-12.288 6.144-12.288 12.288h-999.424c0-7.168-6.144-12.288-12.288-12.288v-17.408c7.168 0 12.288-6.144 12.288-12.288 0-7.168-6.144-12.288-12.288-12.288v-17.408c7.168 0 12.288-6.144 12.288-12.288s-5.12-11.264-12.288-11.264v-17.408c12.288 0 21.504-9.216 21.504-21.504s-9.216-21.504-21.504-21.504v-17.408c7.168 0 12.288-6.144 12.288-12.288s-5.12-12.288-12.288-12.288v-17.408c7.168 0 12.288-6.144 12.288-12.288 0-7.168-6.144-12.288-12.288-12.288v-17.408c7.168 0 12.288-6.144 12.288-12.288h998.4c1.024 6.144 6.144 11.264 13.312 11.264z" />
<glyph unicode="&#xe92a;" glyph-name="dot" d="M0 960h1024v-1024h-1024v1024z" />
<glyph unicode="&#xe92b;" glyph-name="aptitude" d="M61.44 960v-1024h901.12v1024h-901.12zM931.84-33.28h-839.68v962.56h839.68v-962.56zM860.16 857.6h-696.32v-819.2h696.32v819.2zM829.44 69.12h-634.88v757.76h634.88v-757.76zM296.96 160.256h430.080v-30.72h-430.080v30.72zM409.6 483.84v-276.48l102.4 102.4 102.4-102.4v276.48c37.888 29.696 61.44 75.776 61.44 128 0 90.112-73.728 163.84-163.84 163.84s-163.84-73.728-163.84-163.84c0-52.224 23.552-97.28 61.44-128zM583.68 282.112l-71.68 71.68-71.68-71.68v182.272c21.504-10.24 46.080-16.384 71.68-16.384s50.176 6.144 71.68 16.384v-182.272zM512 744.96c73.728 0 133.12-59.392 133.12-133.12s-59.392-133.12-133.12-133.12-133.12 59.392-133.12 133.12 59.392 133.12 133.12 133.12z" />
<glyph unicode="&#xe92c;" glyph-name="contact" d="M813.056-62.976c-52.224 0-101.376 14.336-104.448 15.36-175.104 51.2-641.024 517.12-692.224 692.224-2.048 5.12-41.984 140.288 14.336 201.728 1.024 1.024 30.72 36.864 89.088 66.56 2.048 1.024 64.512 37.888 118.784 45.056 49.152 6.144 76.8-25.6 86.016-45.056 6.144-11.264 68.608-118.784 77.824-192.512 9.216-65.536-12.288-81.92-21.504-86.016-16.384-9.216-55.296-36.864-56.32-64.512 7.168-38.912 271.36-303.104 311.296-310.272 0 0 0 0 1.024 0 22.528 0 51.2 37.888 62.464 57.344 4.096 9.216 21.504 29.696 86.016 21.504 74.752-10.24 181.248-71.68 192.512-77.824 18.432-8.192 51.2-36.864 45.056-86.016v0c-7.168-54.272-44.032-116.736-45.056-119.808-28.672-57.344-65.536-88.064-67.584-89.088-25.6-22.528-62.464-28.672-97.28-28.672zM250.88 928.256c-3.072 0-5.12 0-8.192-1.024-48.128-6.144-107.52-40.96-107.52-40.96-54.272-26.624-80.896-59.392-80.896-59.392-37.888-40.96-18.432-139.264-8.192-173.056 48.128-165.888 505.856-623.616 670.72-671.744 34.816-10.24 132.096-29.696 173.056 7.168 1.024 1.024 33.792 28.672 60.416 80.896 1.024 1.024 35.84 61.44 41.984 108.544v0c5.12 37.888-24.576 52.224-27.648 54.272h-2.048c-1.024 1.024-111.616 65.536-182.272 74.752-36.864 5.12-52.224-2.048-55.296-5.12v0c-4.096-7.168-44.032-74.752-91.136-72.704-39.936 1.024-192.512 154.624-242.688 207.872-98.304 105.472-97.28 124.928-97.28 133.12 2.048 50.176 65.536 86.016 73.728 90.112v0c3.072 3.072 10.24 18.432 5.12 55.296-10.24 71.68-74.752 181.248-75.776 182.272l-1.024 2.048c-1.024 3.072-13.312 27.648-45.056 27.648z" />
<glyph unicode="&#xe92d;" glyph-name="cooperation" d="M194.56 568.832c90.112 0 163.84 73.728 163.84 163.84s-73.728 163.84-163.84 163.84-163.84-73.728-163.84-163.84 73.728-163.84 163.84-163.84zM194.56 865.792c73.728 0 133.12-59.392 133.12-133.12s-59.392-133.12-133.12-133.12-133.12 59.392-133.12 133.12 59.392 133.12 133.12 133.12zM829.44 568.832c90.112 0 163.84 73.728 163.84 163.84s-73.728 163.84-163.84 163.84-163.84-73.728-163.84-163.84 73.728-163.84 163.84-163.84zM829.44 865.792c73.728 0 133.12-59.392 133.12-133.12s-59.392-133.12-133.12-133.12-133.12 59.392-133.12 133.12 59.392 133.12 133.12 133.12zM1013.76 551.424h-368.64c-5.12 0-10.24-5.12-10.24-10.24v-133.12l-122.88-122.88-122.88 122.88v133.12c0 5.12-5.12 10.24-10.24 10.24h-368.64c-5.12 0-10.24-5.12-10.24-10.24v-389.12c0-6.144 5.12-10.24 10.24-10.24h20.48v-135.168c0-5.12 5.12-10.24 10.24-10.24h307.2c5.12 0 10.24 5.12 10.24 10.24v266.24l153.6-153.6 153.6 153.6v-266.24c0-5.12 5.12-10.24 10.24-10.24h307.2c5.12 0 10.24 5.12 10.24 10.24v135.168h20.48c5.12 0 10.24 4.096 10.24 10.24v389.12c0 6.144-5.12 10.24-10.24 10.24zM909.312 520.704l-79.872-138.24-79.872 139.264h159.744zM274.432 520.704l-79.872-139.264-79.872 139.264h159.744zM327.68 32.256c0-3.072-2.048-5.12-5.12-5.12h-256c-3.072 0-5.12 2.048-5.12 5.12v109.568h266.24v-109.568zM962.56 32.256c0-3.072-2.048-5.12-5.12-5.12h-256c-3.072 0-5.12 2.048-5.12 5.12v109.568h266.24v-109.568zM993.28 177.664c0-3.072-2.048-5.12-5.12-5.12h-291.84v174.080l-184.32-184.32-184.32 184.32v-174.080h-291.84c-3.072 0-5.12 2.048-5.12 5.12v337.92c0 3.072 2.048 5.12 5.12 5.12h43.008l115.712-199.68 115.712 200.704h43.008c3.072 0 5.12-2.048 5.12-5.12v-119.808l153.6-153.6 153.6 153.6v118.784c0 3.072 2.048 5.12 5.12 5.12h43.008l115.712-199.68 115.712 200.704h43.008c3.072 0 5.12-2.048 5.12-5.12v-338.944z" />
<glyph unicode="&#xe92e;" glyph-name="events" d="M916.48 780.8v-30.72h76.8v-655.36h-962.56v655.36h66.56v-583.68c0 0 38.912 51.2 204.8 51.2s204.8-51.2 204.8-51.2v0c0 0 0 0 0 0s0 0 0 0v0c0 0 38.912 51.2 204.8 51.2s204.8-51.2 204.8-51.2v614.4c0 0-41.984 51.2-204.8 51.2-161.792 0-204.8-51.2-204.8-51.2s-43.008 51.2-204.8 51.2c-162.816 0-204.8-51.2-204.8-51.2h-97.28v-716.8h1024v716.8h-107.52zM541.696 481.792v269.312c0 0 34.816 43.008 169.984 43.008s169.984-43.008 169.984-43.008v-512c0 0-31.744 27.648-169.984 27.648s-169.984-27.648-169.984-27.648v242.688zM132.096 481.792v269.312c0 0 34.816 43.008 169.984 43.008s169.984-43.008 169.984-43.008v-512c0 0-31.744 27.648-169.984 27.648s-169.984-27.648-169.984-27.648v242.688zM179.2 706.048h245.76v-30.72h-245.76v30.72zM179.2 609.792h245.76v-30.72h-245.76v30.72zM179.2 513.536h245.76v-30.72h-245.76v30.72zM179.2 417.28h245.76v-30.72h-245.76v30.72zM588.8 706.048h245.76v-30.72h-245.76v30.72zM588.8 609.792h245.76v-30.72h-245.76v30.72zM588.8 513.536h245.76v-30.72h-245.76v30.72zM588.8 417.28h245.76v-30.72h-245.76v30.72z" />
<glyph unicode="&#xe92f;" glyph-name="info" d="M922.624-33.28v766.976h-350.208v-186.368h-91.136v412.672h-386.048v-993.28h-63.488v-30.72h960.512v30.72h-69.632zM125.952-33.28v962.56h324.608v-962.56h-324.608zM481.28-33.28v549.888h289.792v-549.888h-289.792zM801.792 516.608v30.72h-198.656v155.648h289.792v-736.256h-91.136v549.888zM174.080 859.648h51.2v-51.2h-51.2v51.2zM263.168 859.648h51.2v-51.2h-51.2v51.2zM351.232 859.648h51.2v-51.2h-51.2v51.2zM174.080 749.056h51.2v-51.2h-51.2v51.2zM174.080 639.488h51.2v-51.2h-51.2v51.2zM174.080 528.896h51.2v-51.2h-51.2v51.2zM174.080 418.304h51.2v-51.2h-51.2v51.2zM174.080 307.712h51.2v-51.2h-51.2v51.2zM174.080 198.144h51.2v-51.2h-51.2v51.2zM174.080 87.552h51.2v-51.2h-51.2v51.2zM263.168 749.056h51.2v-51.2h-51.2v51.2zM263.168 639.488h51.2v-51.2h-51.2v51.2zM263.168 528.896h51.2v-51.2h-51.2v51.2zM263.168 418.304h51.2v-51.2h-51.2v51.2zM263.168 307.712h51.2v-51.2h-51.2v51.2zM263.168 198.144h51.2v-51.2h-51.2v51.2zM263.168 87.552h51.2v-51.2h-51.2v51.2zM351.232 749.056h51.2v-51.2h-51.2v51.2zM351.232 639.488h51.2v-51.2h-51.2v51.2zM351.232 528.896h51.2v-51.2h-51.2v51.2zM351.232 418.304h51.2v-51.2h-51.2v51.2zM351.232 307.712h51.2v-51.2h-51.2v51.2zM351.232 198.144h51.2v-51.2h-51.2v51.2zM351.232 87.552h51.2v-51.2h-51.2v51.2zM515.072 483.84h30.72v-225.28h-30.72v225.28zM578.56 483.84h30.72v-225.28h-30.72v225.28zM643.072 483.84h30.72v-225.28h-30.72v225.28zM706.56 483.84h30.72v-225.28h-30.72v225.28zM515.072 224.768h30.72v-225.28h-30.72v225.28zM578.56 224.768h30.72v-225.28h-30.72v225.28zM643.072 224.768h30.72v-225.28h-30.72v225.28zM706.56 224.768h30.72v-225.28h-30.72v225.28zM635.904 670.208h30.72v-30.72h-30.72v30.72zM700.416 670.208h30.72v-30.72h-30.72v30.72zM763.904 670.208h30.72v-30.72h-30.72v30.72zM828.416 670.208h30.72v-30.72h-30.72v30.72zM635.904 605.696h30.72v-30.72h-30.72v30.72zM700.416 605.696h30.72v-30.72h-30.72v30.72zM763.904 605.696h30.72v-30.72h-30.72v30.72zM828.416 605.696h30.72v-30.72h-30.72v30.72zM828.416 542.208h30.72v-30.72h-30.72v30.72zM828.416 477.696h30.72v-30.72h-30.72v30.72zM828.416 414.208h30.72v-30.72h-30.72v30.72zM828.416 350.72h30.72v-30.72h-30.72v30.72zM828.416 286.208h30.72v-30.72h-30.72v30.72zM828.416 222.72h30.72v-30.72h-30.72v30.72zM828.416 158.208h30.72v-30.72h-30.72v30.72zM828.416 94.72h30.72v-30.72h-30.72v30.72zM828.416 30.208h30.72v-30.72h-30.72v30.72z" />
<glyph unicode="&#xe930;" glyph-name="team" d="M601.088 343.552c76.8 34.816 130.048 111.616 130.048 200.704 0 121.856-98.304 220.16-220.16 220.16s-220.16-98.304-220.16-220.16c0-92.16 57.344-172.032 138.24-203.776-118.784-38.912-203.776-149.504-204.8-280.576h593.92c-1.024 134.144-93.184 247.808-217.088 283.648zM320.512 543.232c0 104.448 84.992 189.44 189.44 189.44s189.44-84.992 189.44-189.44c0-104.448-84.992-189.44-189.44-189.44s-189.44 84.992-189.44 189.44zM520.192 323.072c35.84 0 69.632-7.168 100.352-19.456l-108.544-108.544-103.424 103.424c33.792 16.384 71.68 24.576 111.616 24.576zM256 89.6c10.24 81.92 57.344 152.576 123.904 193.536l132.096-132.096 138.24 138.24c72.704-40.96 123.904-113.664 134.144-200.704h-528.384zM296.96 384.512c-7.168 10.24-14.336 20.48-20.48 31.744-100.352 5.12-179.2 88.064-179.2 188.416 0 104.448 84.992 189.44 189.44 189.44 31.744 0 61.44-8.192 88.064-21.504 10.24 6.144 21.504 11.264 32.768 16.384-34.816 22.528-75.776 35.84-120.832 35.84-121.856 0-220.16-98.304-220.16-220.16 0-92.16 57.344-172.032 138.24-203.776-118.784-38.912-203.776-149.504-204.8-280.576h193.536c2.048 10.24 4.096 20.48 7.168 30.72h-167.936c15.36 131.072 128 233.472 264.192 233.472zM819.2 400.896c80.896 32.768 138.24 111.616 138.24 203.776 0 121.856-98.304 220.16-220.16 220.16-44.032 0-86.016-13.312-120.832-35.84 11.264-5.12 22.528-10.24 32.768-16.384 26.624 14.336 56.32 21.504 88.064 21.504 104.448 0 189.44-84.992 189.44-189.44 0-101.376-79.872-183.296-179.2-188.416-6.144-11.264-12.288-21.504-20.48-31.744 136.192 0 247.808-102.4 264.192-234.496h-167.936c3.072-10.24 5.12-20.48 7.168-30.72h193.536c-1.024 132.096-86.016 242.688-204.8 281.6z" />
<glyph unicode="&#xe931;" glyph-name="arrow-down" d="M1024 675.328l-58.368 57.344-453.632-453.632-453.632 453.632-58.368-57.344 512-512z" />
<glyph unicode="&#xe932;" glyph-name="arrow-up" d="M1024 220.672l-58.368-57.344-453.632 453.632-453.632-453.632-58.368 57.344 512 512z" />
<glyph unicode="&#xe933;" glyph-name="aboutus" d="M617.472 432.64c64.512 36.864 108.544 105.472 108.544 185.344 0 117.76-95.232 212.992-212.992 212.992s-212.992-95.232-212.992-212.992c0-79.872 44.032-148.48 108.544-185.344-160.768-46.080-278.528-193.536-278.528-368.64h43.008c0 174.080 131.072 318.464 300.032 338.944l19.456-39.936h43.008l19.456 39.936c168.96-20.48 300.032-163.84 300.032-338.944h43.008c-2.048 176.128-119.808 323.584-280.576 368.64zM340.992 619.008c0 94.208 76.8 171.008 171.008 171.008s171.008-76.8 171.008-171.008-76.8-171.008-171.008-171.008-171.008 76.8-171.008 171.008zM490.496 320l-41.984-191.488 63.488-64.512 64.512 64.512-43.008 191.488zM182.272 467.456c0 0 0 0 0 0 6.144 4.096 12.288 8.192 18.432 12.288-44.032 30.72-72.704 81.92-72.704 139.264 0 93.184 74.752 168.96 166.912 169.984-10.24 14.336-21.504 27.648-33.792 38.912-100.352-17.408-176.128-104.448-176.128-208.896 0-51.2 18.432-98.304 49.152-135.168-81.92-70.656-134.144-175.104-134.144-291.84h43.008c0 112.64 54.272 212.992 139.264 275.456zM889.856 482.816c30.72 36.864 49.152 83.968 49.152 135.168 0 104.448-75.776 191.488-175.104 209.92-12.288-12.288-24.576-24.576-33.792-38.912 92.16-2.048 166.912-77.824 166.912-169.984 0-57.344-28.672-108.544-72.704-139.264 6.144-4.096 12.288-8.192 18.432-12.288 0 0 0 0 0 0 83.968-62.464 138.24-162.816 138.24-275.456h43.008c0 116.736-52.224 221.184-134.144 290.816z" />
<glyph unicode="&#xe934;" glyph-name="pact" d="M896 745.984v0 0 0l-43.008 43.008v-1.024l-128 129.024h1.024l-43.008 43.008h-384c-94.208 0-171.008-76.8-171.008-171.008v-683.008c0-94.208 76.8-171.008 171.008-171.008h427.008c94.208 0 171.008 76.8 171.008 171.008v595.968l-1.024 44.032zM836.608 744.96h-153.6v153.6l153.6-153.6zM852.992 107.008c0-70.656-57.344-128-128-128h-425.984c-70.656 0-128 57.344-128 128v681.984c0 70.656 57.344 128 128 128h340.992v-215.040h212.992v-594.944zM340.992 659.968h340.992v-43.008h-340.992v43.008zM340.992 531.968h340.992v-43.008h-340.992v43.008zM340.992 403.968h340.992v-43.008h-340.992v43.008zM340.992 275.968h340.992v-43.008h-340.992v43.008z" />
<glyph unicode="&#xe935;" glyph-name="ucenter" d="M1024-46.592h-1024v26.624c0 158.72 301.056 287.744 382.976 304.128 3.072 6.144 6.144 20.48 7.168 34.816-18.432 21.504-64.512 77.824-81.92 152.576-17.408 8.192-31.744 25.6-40.96 51.2-13.312 34.816-14.336 82.944 11.264 114.688 0 1.024 0 1.024 0 2.048-5.12 44.032-17.408 160.768 51.2 236.544 40.96 45.056 102.4 68.608 183.296 68.608s142.336-22.528 183.296-68.608c68.608-76.8 56.32-192.512 51.2-236.544 0 0 0-1.024 0-1.024 24.576-31.744 23.552-79.872 11.264-114.688-9.216-24.576-23.552-43.008-40.96-51.2-17.408-73.728-62.464-131.072-81.92-152.576 1.024-14.336 4.096-28.672 7.168-34.816 81.92-16.384 382.976-145.408 382.976-304.128v-27.648z" />
<glyph unicode="&#xe936;" glyph-name="service" d="M498.954 197.827c-10.404-13.681-28.59-29.204-57.713-29.194-54.784 0-68.987 48.538-69.55 50.606-2.253 7.956 1.628 16.486 8.632 19.005 6.943 2.55 14.408-1.792 16.681-9.677 0.942-3.174 10.076-29.645 44.237-29.645 33.198 0 44.493 30.351 44.585 30.659 2.273 6.246 7.803 9.81 13.445 9.267 6.164 0.85 12.196-3.338 14.203-10.291 0.942-3.174 10.066-29.645 44.237-29.645 33.198 0 44.493 30.351 44.585 30.659 2.796 7.721 10.568 11.448 17.377 8.253 6.799-3.154 10.045-12.012 7.26-19.722-0.717-2.028-18.36-49.49-69.222-49.49-30.843 0-48.824 15.391-58.757 29.215zM970.547 523.643c29.522 0 53.453-23.839 53.453-53.248v-128.287c0-29.42-23.931-53.248-53.453-53.248h-31.816c-1.137 0-2.304 0.051-3.42 0.113-45.056-158.362-178.166-279.839-343.306-308.623-8.847-25.436-41.185-44.349-79.749-44.349-45.373 0-82.156 26.132-82.156 58.368 0 32.225 36.772 58.368 82.156 58.368 29.911 0 56.074-11.387 70.451-28.355 182.333 32.973 320.573 191.908 320.573 383.058 0 215.050-174.981 389.396-390.84 389.396-215.89 0-390.861-174.346-390.861-389.396 0-48.968 9.093-95.805 25.661-138.936 0.020-0.481 0.061-0.963 0.061-1.464 0-12.042-9.8-21.791-21.903-21.791-5.868 0-11.213 2.324-15.145 6.093-4.946 12.728-9.267 25.774-12.995 39.045-4.106-0.993-8.417-1.536-12.831-1.536h-31.816c-29.522 0-53.453 23.828-53.453 53.248v128.287c0 29.409 23.931 53.248 53.453 53.248h31.816c4.188 0 8.274-0.502 12.196-1.403 50.514 183.788 219.341 318.874 419.84 318.874 200.049 0 368.548-134.42 419.502-317.553 0.911 0.051 1.853 0.092 2.765 0.092h31.816zM515.379 864.788c-204.37 0-376.422-137.677-427.919-324.997-1.546 0.369-3.123 0.635-4.71 0.87 1.29 329.718 64.44 420.26 64.44 420.26 66.263 0.041 140.892-44.063 188.631-78.111 83.64 34.714 178.371 42.772 271.217 16.65 30.515-8.571 55.542-16.026 75.981-22.538 132.352 93.481 147.978 83.425 147.978 83.425 40.776-27.269 77.947-169.155 95.119-270.1 5.601-32.819 10.762-78.479 14.295-120.596v-19.753c-54.825 182.149-224.348 314.89-425.032 314.89zM395.121 448.461c0-38.595-31.283-69.888-69.868-69.898-38.595 0-69.878 31.304-69.878 69.898 0 38.574 31.273 69.878 69.878 69.878 38.584 0 69.868-31.293 69.868-69.878zM674.621 378.573c-38.605 0-69.868 31.293-69.868 69.898 0 38.574 31.273 69.878 69.868 69.878s69.868-31.293 69.868-69.878c0-38.595-31.263-69.898-69.868-69.898z" />
<glyph unicode="&#xe937;" glyph-name="arrow-u" d="M20.48 181.76l-20.48 20.48 512 512 512-512-20.48-20.48-491.52 491.52z" />
<glyph unicode="&#xe938;" glyph-name="arrow-d" d="M1003.52 714.24l20.48-20.48-512-512-512 512 20.48 20.48 491.52-491.52z" />
<glyph unicode="&#xe939;" glyph-name="minus" d="M1024 473.6h-1024v-51.2h1024z" />
<glyph unicode="&#xe93a;" glyph-name="hotel" d="M510.72 959.201c-280.914 0-509.43-228.966-509.43-510.403 0-281.426 228.516-510.403 509.43-510.403 280.904 0 509.42 228.966 509.42 510.403s-228.516 510.403-509.42 510.403v0zM510.72-29.706c-263.373 0-477.594 214.651-477.594 478.505s214.221 478.505 477.594 478.505c263.352 0 477.594-214.641 477.594-478.505s-214.241-478.505-477.594-478.505v0zM385.823 695.675c-25.825 0-46.817-22.804-46.817-50.801v-81.746h93.645v81.746c-0.010 27.996-21.033 50.801-46.828 50.801v0zM400.804 595.046h-29.972v49.828c0 10.26 6.871 18.872 14.991 18.872s14.961-8.612 14.961-18.872v-49.828h0.020zM370.913 537.324c-26.798 0-47.38-21.627-47.38-49.213v-195.482h94.71v195.482c0 27.587-20.582 49.213-47.329 49.213v0zM386.683 324.239h-31.56v163.871c0 9.871 6.697 17.326 15.79 17.326 9.073 0 15.77-7.455 15.77-17.326v-163.871zM505.539 695.675c-25.805 0-46.817-22.804-46.817-50.801v-81.746h93.645v81.746c-0.010 27.996-21.023 50.801-46.828 50.801v0zM520.53 595.046h-29.942v49.828c0 10.26 6.84 18.872 14.95 18.872 8.12 0 14.991-8.612 14.991-18.872v-49.828zM499.2 537.324c-26.798 0-47.35-21.627-47.35-49.213v-195.482h94.679v195.482c0 27.587-20.552 49.213-47.329 49.213v0zM515 324.239h-31.59v163.871c0 9.871 6.697 17.326 15.79 17.326 9.073 0 15.8-7.455 15.8-17.326v-163.871zM794.348 244.695h-33.065v384.358c0 42.926-34.857 77.875-77.742 77.875h-66.386c-7.229 35.482-38.615 62.259-76.134 62.259h-194.068c-42.824 0-77.691-34.918-77.691-77.875v-446.618h-57.047c-8.786 0-15.933-7.148-15.933-15.964v-64c0-8.786 7.137-15.944 15.933-15.944h582.144c8.776 0 15.933 7.148 15.933 15.944v64c-0.010 8.806-7.158 15.964-15.944 15.964v0zM729.416 629.053v-384.369h-110.705v430.356h64.829c25.313 0 45.875-20.634 45.875-45.988v0zM301.066 691.313c0 25.354 20.603 45.988 45.875 45.988h194.068c25.303 0 45.875-20.634 45.875-45.988v-446.618h-285.819v446.618zM776.663 181.443h-548.833v31.611h548.833v-31.611z" />
<glyph unicode="&#xe93b;" glyph-name="direction" d="M1024 957.481l-346.132-1021.481-264.622 430.131-410.696 249.549 1021.45 341.801z" />
<glyph unicode="&#xe93c;" glyph-name="restaurant" d="M869.253 808.632c-100.045 99.226-220.293 148.869-360.724 148.869-140.452 0-260.69-49.644-359.834-147.948-99.123-100.168-148.695-220.539-148.695-361.114 0-141.496 49.572-261.868 148.695-361.124 100.055-99.226 220.293-148.838 360.745-148.838 140.431 0 260.69 49.613 359.813 148.838v0.942c100.055 98.314 149.627 218.685 149.627 359.25 0 141.507-50.483 261.878-149.627 361.124zM849.746 107.438c-94.249-94.167-208.497-140.79-340.828-140.79s-245.627 46.623-339.876 140.79c-93.307 94.157-140.902 208.312-140.902 340.531 0.952 133.161 47.596 246.344 140.902 340.511l0.778-0.973c91.781 90.972 205.804 141.773 339.098 141.773s246.579-46.623 340.828-140.79c94.249-94.167 140.892-208.312 140.892-340.511 0-133.192-46.643-246.385-140.892-340.541zM729.477 787.517c-95.406 0-173.476-76.421-173.476-169.81v-271.688l69.386-67.942v-101.878c0-37.356 31.232-67.932 69.386-67.932 38.164 0 69.386 30.566 69.386 67.932v577.352c0 18.688-15.596 33.966-34.683 33.966zM729.477 176.2c0-18.678-15.616-33.956-34.703-33.956-19.077 0-34.693 15.278-34.693 33.956v115.476l-10.404 10.168-58.982 57.743v258.12c0 74.701 62.454 135.844 138.772 135.844v-577.352zM313.149 617.708c-10.404 0-17.347 6.799-17.347 16.968v135.854c0 10.199 6.943 16.998 17.347 16.998s17.336-6.799 17.336-16.998v-135.854c0-10.168-6.932-16.968-17.336-16.968zM382.536 617.708c-10.404 0-17.336 6.799-17.336 16.968v135.854c0 10.199 6.932 16.998 17.336 16.998s17.347-6.799 17.347-16.998v-135.854c0-10.168-6.943-16.968-17.347-16.968zM451.922 787.517c10.404 0 17.347-6.799 17.347-16.988v-244.531c0-16.968-6.932-33.935-20.808-47.534l-31.232-30.566v-271.698c0-37.366-31.222-67.932-69.376-67.932-38.164 0-69.396 30.577-69.396 67.932v271.698l-31.222 32.256c-13.875 11.909-20.808 28.877-20.808 47.565v242.811c0 10.199 6.932 16.998 17.336 16.998 10.414 0 17.347-6.799 17.347-16.998v-244.531c0-8.479 3.471-16.968 10.404-23.767l41.636-40.745v-285.286c0-18.678 15.616-33.956 34.703-33.956 19.067 0 34.683 15.278 34.683 33.956v285.286l10.404 11.889 31.232 30.566c6.932 6.769 10.404 15.247 10.404 23.767v242.811c0 10.199 6.943 16.998 17.347 16.998z" />
<glyph unicode="&#xe93d;" glyph-name="active" d="M892.928 910.848h-389.12c-22.528 0-43.008-8.192-57.344-22.528l-422.912-425.984c-31.744-31.744-31.744-82.944 0-114.688l388.096-388.096c31.744-31.744 82.944-31.744 114.688 0l423.936 423.936c15.36 15.36 22.528 36.864 22.528 57.344v389.12c0 44.032-34.816 80.896-79.872 80.896zM662.528 436.736c-8.192-1.024-16.384-1.024-25.6-2.048-9.216 0-17.408 0-24.576 0-1.024 0-3.072 0-6.144 1.024l47.104-47.104c4.096-4.096 6.144-7.168 7.168-11.264s0-7.168-4.096-11.264c-4.096-4.096-7.168-5.12-11.264-4.096s-8.192 3.072-11.264 7.168l-103.424 102.4c-5.12-3.072-11.264-5.12-17.408-7.168s-12.288-4.096-18.432-6.144l129.024-129.024c4.096-4.096 6.144-7.168 7.168-11.264 1.024-3.072-1.024-7.168-4.096-11.264-4.096-4.096-7.168-5.12-11.264-5.12-3.072 1.024-7.168 3.072-11.264 7.168l-51.2 51.2c0-16.384 1.024-32.768 3.072-48.128s4.096-29.696 8.192-43.008c2.048-10.24 3.072-16.384 1.024-20.48s-5.12-7.168-11.264-8.192c-4.096-1.024-8.192 0-12.288 3.072s-6.144 8.192-8.192 15.36c-4.096 17.408-6.144 34.816-7.168 54.272-2.048-5.12-6.144-10.24-12.288-17.408-4.096-4.096-8.192-8.192-14.336-13.312s-12.288-10.24-18.432-15.36c-6.144-5.12-12.288-9.216-18.432-13.312s-10.24-7.168-14.336-9.216c-10.24-6.144-19.456-10.24-28.672-11.264-8.192-1.024-16.384 0-24.576 4.096s-15.36 11.264-23.552 21.504c-7.168 10.24-15.36 23.552-24.576 40.96-4.096 7.168-5.12 13.312-3.072 17.408 1.024 4.096 4.096 6.144 8.192 8.192 5.12 2.048 10.24 2.048 13.312 0s6.144-6.144 9.216-12.288c6.144-14.336 12.288-24.576 17.408-32.768s9.216-13.312 14.336-16.384c4.096-3.072 9.216-4.096 13.312-2.048 4.096 1.024 9.216 4.096 15.36 8.192 9.216 7.168 19.456 14.336 28.672 21.504 10.24 8.192 18.432 15.36 26.624 22.528 3.072 3.072 4.096 5.12 4.096 8.192-1.024 2.048-5.12 7.168-12.288 14.336l-41.984 43.008c-18.432-10.24-34.816-18.432-51.2-23.552s-31.744-7.168-48.128-6.144c-15.36 1.024-31.744 4.096-47.104 9.216s-31.744 13.312-49.152 23.552c-6.144 4.096-10.24 7.168-11.264 11.264s0 7.168 3.072 12.288c3.072 4.096 6.144 6.144 10.24 6.144s9.216-2.048 15.36-5.12c16.384-9.216 30.72-16.384 44.032-20.48 13.312-5.12 26.624-7.168 38.912-7.168s24.576 1.024 36.864 5.12c12.288 4.096 24.576 9.216 37.888 16.384l-30.72 30.72c-6.144 6.144-8.192 12.288-6.144 17.408-21.504 2.048-43.008 6.144-64.512 11.264-7.168 2.048-11.264 4.096-13.312 7.168s-2.048 7.168-1.024 12.288c1.024 5.12 3.072 8.192 7.168 10.24s8.192 2.048 14.336 1.024c19.456-6.144 38.912-10.24 57.344-12.288s35.84-2.048 54.272-1.024l-56.32 56.32c-4.096 4.096-6.144 7.168-6.144 11.264-1.024 4.096 1.024 7.168 5.12 11.264s7.168 5.12 11.264 4.096c3.072-1.024 7.168-3.072 11.264-7.168l70.656-70.656c7.168 1.024 13.312 3.072 19.456 5.12s12.288 4.096 18.432 6.144l-69.632 69.632c-4.096 4.096-6.144 7.168-7.168 11.264s0 7.168 4.096 11.264c4.096 4.096 7.168 5.12 11.264 4.096s8.192-3.072 11.264-6.144l37.888-37.888c-1.024 3.072-1.024 5.12 0 8.192 0 4.096 0 7.168 1.024 10.24 0 3.072 0 6.144 0 10.24 0 3.072 0 7.168 0 10.24 0 4.096 0 8.192 0 13.312 0 6.144 1.024 11.264 3.072 13.312s6.144 3.072 11.264 3.072c4.096 0 7.168-2.048 9.216-4.096 2.048-3.072 3.072-6.144 3.072-10.24 0-6.144 0-11.264 0-15.36s0-8.192 0-12.288c0-4.096 0-7.168 0-10.24s0-7.168 0-10.24c0-5.12-1.024-10.24-3.072-13.312s-6.144-5.12-12.288-4.096c0 0-1.024 0-1.024 0l28.672-28.672c8.192 4.096 16.384 10.24 24.576 15.36 8.192 6.144 16.384 12.288 25.6 20.48 5.12 4.096 9.216 7.168 12.288 7.168 3.072 1.024 7.168-1.024 10.24-4.096 4.096-4.096 6.144-8.192 6.144-11.264s-3.072-7.168-9.216-12.288c-7.168-6.144-15.36-13.312-23.552-19.456s-16.384-12.288-25.6-17.408l35.84-35.84c1.024 6.144 2.048 9.216 6.144 11.264 3.072 2.048 8.192 3.072 13.312 2.048 8.192-1.024 16.384-1.024 23.552-1.024s15.36 1.024 25.6 1.024c4.096 0 8.192 0 11.264-2.048s4.096-6.144 5.12-11.264c-2.048-7.168-7.168-11.264-17.408-12.288zM773.12 640.512c-39.936 0-72.704 32.768-72.704 72.704s32.768 72.704 72.704 72.704c39.936 0 72.704-32.768 72.704-72.704s-32.768-72.704-72.704-72.704zM412.672 446.976l97.28-97.28c7.168-7.168 12.288-14.336 15.36-19.456 0 9.216 0 17.408 0 27.648 0 9.216 1.024 19.456 1.024 28.672l-64.512 64.512c-16.384-3.072-32.768-4.096-49.152-4.096z" />
<glyph unicode="&#xe93e;" glyph-name="beginner" d="M982.016 346.624c-56.32 0-90.112-27.648-90.112-27.648 18.432 71.68-41.984 64.512-41.984 64.512-62.464 0-102.4-61.44-102.4-61.44 12.288 51.2-46.080 52.224-46.080 52.224-77.824 0-144.384-81.92-144.384-81.92h77.824c28.672 0 112.64 15.36 112.64-67.584s-110.592-82.944-110.592-82.944-62.464 0-167.936 0c-103.424 1.024-151.552 101.376-151.552 101.376 47.104-61.44 146.432-67.584 146.432-67.584s95.232 0 151.552 0 102.4 18.432 102.4 56.32-62.464 30.72-62.464 30.72c-131.072-3.072-183.296 22.528-219.136 52.224s-100.352 87.040-187.392 87.040c-120.832-1.024-248.832-108.544-248.832-108.544l129.024-221.184c57.344 88.064 141.312 33.792 141.312 33.792s87.040-30.72 185.344-93.184c100.352-62.464 177.152 0 177.152 0s224.256 156.672 286.72 198.656 102.4 77.824 102.4 77.824 16.384 57.344-39.936 57.344zM507.904 418.304c136.192 0 246.784 108.544 246.784 246.784s-108.544 245.76-246.784 245.76-245.76-109.568-245.76-246.784 110.592-245.76 245.76-245.76zM428.032 810.496l79.872-142.336 79.872 142.336h30.72l-86.016-151.552h66.56v-16.384h-76.8v-41.984h76.8v-17.408h-76.8v-66.56h-27.648v66.56h-76.8v17.408h76.8v41.984h-76.8v17.408h66.56l-87.040 151.552c2.048-1.024 30.72-1.024 30.72-1.024z" />
<glyph unicode="&#xe93f;" glyph-name="change" d="M188.416 648.704h270.336l-101.376 168.96c-31.744 53.248-103.424 72.704-159.744 41.984-55.296-30.72-74.752-100.352-43.008-154.624l33.792-56.32zM288.768 783.872c3.072 8.192 13.312 11.264 21.504 8.192s11.264-13.312 8.192-20.48-13.312-11.264-21.504-8.192c-8.192 3.072-13.312 12.288-8.192 20.48zM260.096 725.504c3.072 8.192 13.312 11.264 21.504 8.192s11.264-13.312 8.192-20.48c-3.072-8.192-13.312-11.264-21.504-8.192s-11.264 12.288-8.192 20.48zM226.304 809.472c3.072 8.192 13.312 11.264 21.504 8.192s11.264-13.312 8.192-20.48c-3.072-8.192-13.312-11.264-21.504-8.192s-11.264 12.288-8.192 20.48zM199.68 752.128c3.072 8.192 13.312 11.264 21.504 8.192s11.264-13.312 8.192-20.48c-3.072-8.192-13.312-11.264-21.504-8.192-8.192 2.048-11.264 12.288-8.192 20.48zM851.968 648.704l29.696 50.176c18.432 30.72 7.168 70.656-24.576 89.088l-288.768 160.768c-31.744 17.408-73.728 6.144-92.16-24.576l-76.8-126.976 88.064-149.504h363.52v1.024zM642.048 811.52c10.24 16.384 29.696 20.48 45.056 11.264 16.384-9.216 21.504-28.672 11.264-44.032-10.24-16.384-29.696-20.48-45.056-11.264-14.336 10.24-19.456 29.696-11.264 44.032zM896 615.936h-768c-36.864 0-66.56-28.672-66.56-64.512l66.56-547.84c0-35.84 29.696-64.512 66.56-64.512h634.88c36.864 0 66.56 28.672 66.56 64.512l66.56 547.84c0 35.84-29.696 64.512-66.56 64.512zM512 213.504c-146.432 0-267.264 115.712-267.264 258.048 0 9.216 7.168 16.384 16.384 16.384s16.384-6.144 16.384-16.384c0-123.904 105.472-225.28 233.472-225.28s233.472 101.376 233.472 225.28c0 9.216 7.168 16.384 16.384 16.384s16.384-6.144 16.384-16.384c2.048-142.336-118.784-258.048-265.216-258.048z" />
<glyph unicode="&#xe940;" glyph-name="search" d="M964.547 107.817l-219.628 219.699c-2.55 2.54-5.386 4.485-8.069 6.595 37.079 56.924 58.747 124.744 58.747 197.806 0 200.694-162.621 363.366-363.356 363.366-200.622 0-363.366-162.673-363.366-363.366 0-200.724 162.744-363.356 363.366-363.356 73.011 0 140.923 21.709 197.929 58.819 2.079-2.765 3.983-5.499 6.502-8.018l219.658-219.72c14.981-14.95 34.529-22.395 54.088-22.395 19.569 0 39.117 7.444 54.098 22.364 29.839 29.901 29.839 78.326 0.031 108.206zM432.241 283.31c-137.052 0-248.617 111.544-248.617 248.617 0 137.052 111.575 248.637 248.617 248.637 137.052 0 248.607-111.585 248.607-248.637 0-137.073-111.565-248.617-248.607-248.617z" />
<glyph unicode="&#xe941;" glyph-name="star" d="M512 127.488l316.416-166.912-60.416 353.28 256 248.832-353.28 51.2-158.72 321.536-158.72-321.536-353.28-51.2 256-248.832-60.416-353.28z" />
<glyph unicode="&#xe942;" glyph-name="safe" d="M512 960l-427.008-144.384v-558.080c0 0 91.136-243.712 427.008-321.536 335.872 77.824 427.008 321.536 427.008 321.536v558.080l-427.008 144.384zM528.384 363.008l-60.416-60.416-181.248 181.248 60.416 60.416 120.832-120.832 181.248 181.248 60.416-60.416-181.248-181.248z" />
</font>
</defs>
</svg>
